# xmcd
#
# Track frame offsets: 
#        150
#        16637
#        31923
#        49140
#        60601
#        65540
#        79431
#        99090
#        118182
#        137269
#        150213
#        163931
#
# Disc length: 2386 seconds
#
# Revision: 3
# Processed by: cddbd v1.5.2PL0 Copyright (c) Steve Scherf et al.
# Submitted via: ExactAudioCopy v0.99pb5
#
DISCID=8c09500c
DTITLE=Darker My Love - Darker My Love
DYEAR=2006
DGENRE=Psychedelic Rock
TTITLE0=Opening
TTITLE1=What's a Man's Paris
TTITLE2=Helium Heels
TTITLE3=Post Mortem, Post Boredom
TTITLE4=Wake
TTITLE5=Fall
TTITLE6=Hello Traveler
TTITLE7=Claws and Paws
TTITLE8=Catch
TTITLE9=People
TTITLE10=I Feel Fine
TTITLE11=Summer Is Here
EXTD=
EXTT0=
EXTT1=
EXTT2=
EXTT3=
EXTT4=
EXTT5=
EXTT6=
EXTT7=
EXTT8=
EXTT9=
EXTT10=
EXTT11=
PLAYORDER=
